<svg xmlns="http://www.w3.org/2000/svg" viewBox="0 0 24 24" fill="currentColor">
  <path d="M13.214 23.975c-.057.008-.113.017-.172.022a12.104 12.104 0 0 1-2.784-.062c-.086-.013-.171-.029-.257-.043v-3.771c.251.091.491.205.752.265a5.78 5.78 0 0 0 1.724.168c.593-.033 1.171-.15 1.72-.377a4.32 4.32 0 0 0 1.486-.989c.43-.432.77-.936 1.01-1.505.26-.604.417-1.253.416-1.918v-.045a5.003 5.003 0 0 0-.365-1.869 4.633 4.633 0 0 0-.956-1.478 4.268 4.268 0 0 0-1.406-.96 4.299 4.299 0 0 0-1.735-.343c-.633.003-1.238.123-1.798.357a4.211 4.211 0 0 0-1.396.959 4.618 4.618 0 0 0-.967 1.484 5.066 5.066 0 0 0-.358 1.89v.055c.006.657.166 1.305.435 1.909.242.569.583 1.07 1.016 1.499.426.424.93.763 1.486.989.517.21 1.058.328 1.608.37v3.742Zm6.785-6.194c.009-.238.014-.477.013-.716a9.03 9.03 0 0 0-.55-3.123 8.58 8.58 0 0 0-1.521-2.6 8.646 8.646 0 0 0-2.347-1.918 8.788 8.788 0 0 0-2.985-1.082V4.621a12.04 12.04 0 0 1 2.977 1.025 12.615 12.615 0 0 1 3.501 2.698 12.59 12.59 0 0 1 2.325 3.72 12.022 12.022 0 0 1 .877 4.132c.012.45-.003.894-.046 1.323-.012.116-.028.232-.044.348v.012h-.001a11.993 11.993 0 0 1-2.199 5.32v-4.098ZM0 12c0 6.627 5.373 12 12 12 .338 0 .672-.016 1.003-.045v-3.742a5.538 5.538 0 0 1-1.555-.389 5.155 5.155 0 0 1-1.783-1.186 5.567 5.567 0 0 1-1.219-1.802 5.992 5.992 0 0 1-.437-2.282v-.066c.006-.787.164-1.563.468-2.282a5.542 5.542 0 0 1 1.209-1.79 5.09 5.09 0 0 1 1.787-1.186c.581-.253 1.197-.39 1.824-.415v-.027h-.006c.006 0 .012-.001.018-.001.597 0 1.178.095 1.723.272V4.62a11.92 11.92 0 0 0-2.029-.501A12.03 12.03 0 0 0 12 4C5.373 4 0 9.373 0 16c0-.663.027-1.322.079-1.975v-.05c.003-.03.005-.06.008-.091A11.932 11.932 0 0 1 0 12Z"/>
</svg>
