<svg xmlns="http://www.w3.org/2000/svg" viewBox="0 0 315 315">
		<path xmlns="http://www.w3.org/2000/svg" d="M 198.219 19.33 L 198.219 20.924 C 234.574 22.465 265.985 51.163 282.192 92.836 L 289.211 92.836 L 289.211 103.524 L 293.391 103.524 L 293.391 111.857 L 294.28 111.857 L 294.28 115.363 L 295.577 115.363 L 295.577 200.556 L 293.579 200.556 L 293.579 211.899 L 288.142 211.899 L 288.142 220.033 L 282.917 220.033 C 266.934 262.733 235.124 292.281 198.219 293.845 L 198.219 295.771 L 112.941 295.771 L 112.941 294.911 C 72.41 292.326 38.289 255.602 25.116 204.945 L 19.781 204.945 L 19.781 200.556 L 18.862 200.556 L 18.862 115.363 L 20.212 115.363 L 20.212 104.307 L 24.797 104.307 L 24.797 97.455 L 29.647 97.455 C 45.131 54.504 76.437 24.481 112.941 22.153 L 112.941 19.33 L 198.219 19.33 Z" fill="white"/>
		<path d="M 120.491 93.481 C 169.824 65.041 231.491 100.591 231.491 157.472 C 231.491 183.87 217.387 208.263 194.491 221.462 C 145.158 249.902 83.491 214.352 83.491 157.472 C 83.491 131.073 97.595 106.681 120.491 93.481 Z M 128.138 208.238 C 167.275 230.8 216.198 202.597 216.198 157.472 C 216.198 136.529 205.008 117.177 186.844 106.705 C 147.707 84.143 98.784 112.347 98.784 157.472 C 98.784 178.414 109.974 197.766 128.138 208.238 Z M 127.5 281 L 150 281 L 149.999 256.346 C 103.597 252.685 62.464 216.045 58.77 165 L 34 165 L 34 187.5 L 20.749 187.5 C 29.084 225.498 53.024 258.839 87.5 278.744 C 100.506 286.253 113.966 291.408 127.5 294.427 Z M 165 281 L 187.5 281 L 187.5 294.362 C 238.957 282.862 282.581 242.622 294.366 187.5 L 281.026 187.5 L 281.026 165 L 256.216 165 C 253.757 197.441 235.453 226.81 207 243.237 C 193.411 251.083 179.123 255.294 164.999 256.369 Z M 281.026 150 L 281.026 127.5 L 294.251 127.5 C 285.916 89.502 261.976 56.161 227.5 36.256 C 214.494 28.747 201.034 23.592 187.5 20.573 L 187.5 34 L 165 34 L 165 58.654 C 211.403 62.314 252.536 98.955 256.23 150 Z M 150 34 L 127.5 34 L 127.5 20.638 C 76.043 32.138 32.419 72.378 20.634 127.5 L 34 127.5 L 34 150 L 58.784 150 C 61.243 117.559 79.547 88.19 108 71.763 C 121.589 63.918 135.877 59.707 150 58.631 Z M 82.5 27.596 C 99.522 17.768 117.269 11.704 135 8.978 L 135 19 L 180 19 L 180 9.037 C 242.261 18.718 295.993 67.503 305.876 135 L 296.5 135 L 296.5 180 L 305.806 180 C 299.033 224.678 272.329 264.409 232.5 287.404 C 215.478 297.232 197.731 303.295 180 306.022 L 180 296.5 L 135 296.5 L 135 305.963 C 72.738 296.282 19.007 247.498 9.124 180 L 18.5 180 L 18.5 135 L 9.194 135 C 15.967 90.322 42.671 50.591 82.5 27.596 Z M 111 238.04 C 173 273.836 250.5 229.091 250.5 157.5 C 250.5 124.274 232.774 93.572 204 76.96 C 142 41.164 64.5 85.909 64.5 157.5 C 64.5 190.726 82.226 221.428 111 238.04 Z M 187.53 157.5 C 187.53 174.085 174.085 187.53 157.5 187.53 C 140.915 187.53 127.47 174.085 127.47 157.5 C 127.47 140.915 140.915 127.47 157.5 127.47 C 174.085 127.47 187.53 140.915 187.53 157.5 Z M 133.339 177.578 L 137.422 181.661 C 138.174 182.413 138.174 183.632 137.422 184.383 L 122.449 199.356 C 121.134 200.672 119.001 200.672 117.685 199.356 L 115.644 197.315 C 114.328 195.999 114.328 193.866 115.644 192.551 L 130.617 177.578 C 131.368 176.826 132.587 176.826 133.339 177.578 Z M 177.578 181.661 L 181.661 177.578 C 182.413 176.826 183.632 176.826 184.384 177.578 L 199.357 192.551 C 200.672 193.866 200.672 195.999 199.357 197.315 L 197.315 199.356 C 195.999 200.672 193.867 200.672 192.551 199.356 L 177.578 184.383 C 176.826 183.632 176.826 182.413 177.578 181.661 Z M 137.422 133.339 L 133.339 137.422 C 132.587 138.174 131.369 138.175 130.617 137.422 L 115.644 122.449 C 114.328 121.134 114.328 119.002 115.644 117.686 L 117.686 115.644 C 119.002 114.328 121.134 114.328 122.449 115.643 L 137.422 130.616 C 138.175 131.369 138.174 132.587 137.422 133.339 Z M 181.661 137.422 L 177.578 133.339 C 176.826 132.587 176.826 131.368 177.578 130.616 L 192.551 115.643 C 193.867 114.328 195.999 114.328 197.315 115.643 L 199.357 117.685 C 200.672 119.001 200.672 121.133 199.357 122.449 L 184.384 137.422 C 183.632 138.174 182.413 138.174 181.661 137.422 Z M 126.219 154.613 L 126.219 160.388 C 126.219 161.451 125.357 162.313 124.294 162.313 L 103.119 162.313 C 101.259 162.313 99.75 160.804 99.75 158.944 L 99.75 156.056 C 99.75 154.196 101.26 152.688 103.119 152.688 L 124.294 152.688 C 125.357 152.687 126.219 153.549 126.219 154.613 Z M 154.612 188.782 L 160.387 188.782 C 161.451 188.782 162.312 189.644 162.312 190.707 L 162.312 211.882 C 162.312 213.742 160.804 215.251 158.944 215.251 L 156.056 215.251 C 154.196 215.251 152.687 213.742 152.687 211.882 L 152.687 190.707 C 152.687 189.644 153.549 188.782 154.612 188.782 Z M 160.388 126.22 L 154.613 126.219 C 153.549 126.219 152.687 125.357 152.688 124.294 L 152.688 103.119 C 152.688 101.258 154.197 99.751 156.057 99.751 L 158.945 99.75 C 160.805 99.75 162.313 101.258 162.313 103.119 L 162.313 124.294 C 162.313 125.357 161.452 126.219 160.388 126.22 Z M 188.781 160.388 L 188.781 154.613 C 188.78 153.55 189.642 152.688 190.706 152.688 L 211.881 152.688 C 213.742 152.688 215.25 154.196 215.25 156.056 L 215.25 158.944 C 215.249 160.804 213.742 162.313 211.881 162.313 L 190.706 162.313 C 189.643 162.313 188.781 161.451 188.781 160.388 Z M 142.85 185.284 L 148.186 187.494 C 149.169 187.902 149.634 189.027 149.227 190.01 L 141.124 209.573 C 140.412 211.291 138.442 212.107 136.724 211.395 L 134.055 210.29 C 132.337 209.578 131.52 207.608 132.232 205.889 L 140.335 186.326 C 140.742 185.344 141.868 184.878 142.85 185.284 Z M 185.284 172.128 L 187.494 166.792 C 187.901 165.81 189.027 165.344 190.009 165.75 L 209.572 173.854 C 211.292 174.566 212.108 176.537 211.396 178.256 L 210.291 180.924 C 209.579 182.642 207.609 183.458 205.889 182.746 L 186.326 174.643 C 185.344 174.236 184.877 173.111 185.284 172.128 Z M 129.694 142.851 L 127.484 148.186 C 127.078 149.168 125.951 149.635 124.969 149.228 L 105.406 141.125 C 103.687 140.413 102.871 138.442 103.583 136.723 L 104.688 134.056 C 105.4 132.336 107.37 131.52 109.089 132.232 L 128.653 140.336 C 129.635 140.742 130.101 141.869 129.694 142.851 Z M 172.127 129.695 L 166.792 127.485 C 165.81 127.078 165.343 125.952 165.75 124.969 L 173.853 105.406 C 174.565 103.688 176.536 102.871 178.255 103.583 L 180.922 104.688 C 182.642 105.4 183.457 107.371 182.746 109.09 L 174.642 128.653 C 174.235 129.635 173.109 130.101 172.127 129.695 Z M 127.483 166.792 L 129.693 172.128 C 130.1 173.111 129.634 174.236 128.652 174.643 L 109.089 182.746 C 107.369 183.458 105.399 182.642 104.687 180.924 L 103.582 178.255 C 102.87 176.537 103.686 174.566 105.405 173.854 L 124.968 165.75 C 125.951 165.343 127.077 165.81 127.483 166.792 Z M 166.792 187.495 L 172.128 185.284 C 173.109 184.877 174.236 185.344 174.643 186.326 L 182.746 205.889 C 183.458 207.609 182.642 209.579 180.923 210.292 L 178.256 211.396 C 176.536 212.108 174.566 211.292 173.854 209.573 L 165.75 190.009 C 165.344 189.027 165.811 187.901 166.792 187.495 Z M 148.185 127.484 L 142.85 129.695 C 141.868 130.101 140.742 129.634 140.336 128.653 L 132.232 109.09 C 131.52 107.371 132.336 105.4 134.054 104.688 L 136.722 103.583 C 138.441 102.872 140.412 103.688 141.125 105.407 L 149.227 124.97 C 149.634 125.951 149.168 127.078 148.185 127.484 Z M 187.494 148.186 L 185.285 142.85 C 184.878 141.869 185.343 140.742 186.327 140.336 L 205.89 132.232 C 207.608 131.521 209.579 132.337 210.291 134.056 L 211.396 136.723 C 212.108 138.442 211.292 140.413 209.573 141.125 L 190.01 149.228 C 189.027 149.635 187.901 149.169 187.494 148.186 Z" fill="black"/>
	</svg>